<svg viewBox="0 0 117 21" xmlns="http://www.w3.org/2000/svg">
 <g transform="translate(-46.25 -43.057)">
  <path id="logo" d="m124.01 42.673c-1.2644 0-2.4457 0.22593-3.5445 0.67748-1.0988 0.45155-2.0623 1.0762-2.8903 1.8738-0.81266 0.78284-1.4661 1.7133-1.9415 2.7998-0.47293 1.081-0.6997 2.2502-0.6997 3.4995 0 1.2493 0.22677 2.4185 0.6997 3.4995 0.47535 1.0865 1.1213 2.0319 1.9415 2.822 0.8205 0.79039 1.7915 1.4 2.8903 1.8516 1.0988 0.45155 2.2801 0.67748 3.5445 0.67748 1.2493 0 2.4224-0.22856 3.5223-0.67748 1.1128-0.45419 2.0771-1.0687 2.8898-1.8516 0.82799-0.79761 1.4691-1.7411 1.942-2.822 0.47535-1.0865 0.72244-2.2502 0.72244-3.4995 0-1.2493-0.24709-2.413-0.72244-3.4995-0.47293-1.081-1.1215-2.0094-1.942-2.7998-0.82022-0.79013-1.777-1.4196-2.8898-1.8738-1.0999-0.44892-2.273-0.67748-3.5223-0.67748zm-77.764 0.38396v16.933h14.26l-1.4216-3.0706h-9.632v-1.1741h9.0878l-1.4113-3.0479h-7.6765v-6.5474h4.6442l-1.4325-3.0934zm8.5628 0 8.2181 17.746 4.5134-9.7725 0.0021-7.9737-4.47 10.318h-0.09043l-4.4706-10.318zm14.427 0v16.933h12.441v-3.0706h-9.2346v-1.1736h7.6765v-3.0484h-7.6765v-6.5474h7.1903l2.496-3.0934zm14.586 0v20.907l3.206-3.9739v-4.2447h3.7254l2.0996 4.2447h3.545l-2.529-5.1025c0.48166-0.24083 0.92609-0.54946 1.3322-0.92604 0.42172-0.39105 0.78262-0.82014 1.0837-1.2867 0.30104-0.48166 0.53464-1.0011 0.70022-1.558s0.24805-1.1286 0.24805-1.7157c0-0.873-0.17944-1.6904-0.51935-2.4608-0.33745-0.76489-0.80522-1.4301-1.3999-2.0097-0.5945-0.57945-1.2791-1.046-2.0769-1.3772-0.79775-0.33114-1.6558-0.49661-2.574-0.49661zm15.669 0v20.907l3.206-3.9739v-4.2442h6.9314v4.2442h3.161v-16.933h-3.161v9.5958h-6.9314v-9.5958zm35.74 0v16.933h11.65v-3.0706h-8.4444v-13.863zm13.344 0v16.933h5.8927c1.2192 0 2.3544-0.21313 3.4091-0.632 1.0677-0.42403 1.9944-1.0085 2.7771-1.7611 0.7827-0.7526 1.386-1.6513 1.8288-2.6872 0.4452-1.0413 0.67747-2.1671 0.67747-3.3864 0-1.2192-0.23227-2.3456-0.67747-3.3869-0.44287-1.0359-1.0461-1.9341-1.8288-2.6867-0.7827-0.75259-1.7094-1.3371-2.7771-1.7611-1.0547-0.41887-2.1899-0.632-3.4091-0.632zm-24.397 2.9109c0.17293 0.0077 0.36245 0.03869 0.55655 0.10645 0.34593 0.12078 0.66176 0.34293 0.89659 0.62012 0.2593 0.30606 0.42537 0.68428 0.48937 1.0558 0.0733 0.42528 0.0197 0.86101-0.11988 1.2325-0.15733 0.41865-0.43497 0.79101-0.76947 1.0625-0.36298 0.29453-0.81461 0.48797-1.2692 0.55862-0.49189 0.07645-1.0089 0.01364-1.4511-0.16536-0.49221-0.19925-1.1132-0.31526-1.7425-0.22944-0.55834 0.07614-1.109 0.30464-1.5524 0.65061-0.404 0.31524-0.73571 0.74096-0.93896 1.2113-0.0162-0.17998-0.0243-0.36242-0.0243-0.54725 0-0.79774 0.15334-1.542 0.45165-2.2355 0.30377-0.70626 0.70729-1.3165 1.219-1.8283 0.52681-0.52681 1.1353-0.94347 1.8288-1.2418 0.0807-0.03472 0.16195-0.06701 0.24391-0.09767-0.14686 0.1905-0.27106 0.40606-0.35915 0.64027-0.14056 0.3736-0.19228 0.80838-0.11938 1.2325 0.0663 0.38566 0.23986 0.76184 0.48938 1.0563 0.2402 0.28342 0.55905 0.50199 0.89659 0.62012 0.40492 0.14171 0.77548 0.12071 1.0134 0.07286 0.29892-0.06013 0.60271-0.20307 0.84336-0.42013 0.215-0.19392 0.38456-0.45206 0.47026-0.7307 0.0731-0.23792 0.0946-0.51848 0.0269-0.79427-0.0545-0.22219-0.17197-0.4514-0.3514-0.63097-0.14324-0.14336-0.3408-0.26467-0.56431-0.32039-0.16829-0.04195-0.38302-0.0439-0.57567 0.01964-0.0954 0.03148-0.27667 0.1097-0.41807 0.28215-0.10432 0.12719-0.15705 0.28336-0.17105 0.39791-0.0212 0.17351 0.0426 0.31664 0.0646 0.35708 0.0506 0.09323 0.12932 0.16749 0.21342 0.20516 0.0505 0.02261 0.13961 0.04956 0.23151 0.02222 0.07-0.02083 0.1195-0.07213 0.1385-0.11369 0.0216-0.04722 0.0195-0.10442-6e-3 -0.14366-0.0458-0.07001-8e-3 -0.13926-6e-3 -0.14366 0.0224-0.04824 0.0712-0.09133 0.13849-0.11317 0.0944-0.03063 0.18962 0.0012 0.23152 0.02015 0.0962 0.0434 0.1693 0.12526 0.2129 0.20516 0.0717 0.13122 0.0751 0.2561 0.0651 0.35708-0.0192 0.19338-0.11966 0.33462-0.17156 0.39791-0.1029 0.12547-0.25252 0.22778-0.41755 0.28215-0.24574 0.08096-0.4736 0.04462-0.57619 0.01964-0.1285-0.03129-0.35656-0.11281-0.56379-0.32039-0.19927-0.19961-0.3039-0.44034-0.3514-0.63097-0.0295-0.11819-0.0868-0.42784 0.0264-0.79478 0.085-0.27559 0.25366-0.53445 0.47077-0.73019 0.24324-0.21931 0.54695-0.36053 0.84336-0.42013 0.12765-0.02567 0.28388-0.04131 0.45682-0.03359zm-37.15 0.1819h3.6349c0.45156 0 0.87759 0.09704 1.2867 0.2713 0.40374 0.17196 0.75272 0.39867 1.0387 0.6997 0.30104 0.28599 0.52833 0.62734 0.70022 1.016 0.17435 0.39418 0.27078 0.81297 0.27078 1.2645 0 0.45156-0.09653 0.87758-0.27078 1.2867-0.17194 0.40374-0.39918 0.7604-0.70022 1.0614-0.28598 0.28599-0.6323 0.51908-1.0387 0.6997-0.4064 0.16557-0.83518 0.24856-1.2867 0.24856h-3.6349zm64.753 0h2.6867c0.73754 0 1.429 0.14621 2.0774 0.42943 0.66108 0.28874 1.234 0.66969 1.7157 1.1514s0.8626 1.0546 1.1514 1.7157c0.28323 0.64844 0.42892 1.3399 0.42892 2.0774 0 0.7526-0.14017 1.4613-0.42892 2.1224-0.28322 0.64843-0.66969 1.2118-1.1514 1.6934s-1.0546 0.8626-1.7157 1.1514c-0.64844 0.28323-1.3398 0.42892-2.0774 0.42892h-2.6867zm-25.387 0.12402c0.65314 0.29647 1.2146 0.69782 1.7027 1.186 0.51934 0.51934 0.93802 1.1221 1.2418 1.8283 0.29831 0.69357 0.45165 1.4378 0.45165 2.2355 0 0.33602-0.0267 0.66445-0.0801 0.98444-0.0952-0.23936-0.22665-0.4646-0.38757-0.66042-0.24993-0.30414-0.59926-0.56958-1.0072-0.71985-0.37968-0.13987-0.79008-0.17131-1.1591-0.10439-0.36987 0.06707-0.71665 0.23482-0.98547 0.46664-0.2619 0.22585-0.46274 0.52419-0.56999 0.84129-0.0577 0.17068-0.14608 0.5281-0.0579 0.94051 0.0635 0.29683 0.20788 0.56824 0.39739 0.77256 0.17549 0.18924 0.41203 0.34381 0.6749 0.42013 0.24155 0.07013 0.49749 0.07154 0.7214 0.01137 0.22943-0.06169 0.42277-0.18435 0.55966-0.32814 0.12459-0.13088 0.23-0.31076 0.2713-0.50901 0.0492-0.23574-6e-3 -0.42673-0.0351-0.50281-0.0516-0.13655-0.14269-0.26205-0.25942-0.34727-0.15107-0.11029-0.3024-0.12003-0.3421-0.12092-0.13964-0.0031-0.23512 0.0466-0.28422 0.08165-0.0757 0.05396-0.12205 0.13418-0.13435 0.19017-0.0121 0.05482-7e-3 0.12671 0.0284 0.17622 0.0112 0.0155 0.0551 0.03755 0.062 0.04651l5.2e-4 5.17e-4 5.1e-4 5.17e-4v0.00155h-5.1e-4v5.17e-4h-5.2e-4c-6.1e-4 2.42e-4 -2e-3 8.14e-4 -3e-3 1e-3 6e-3 0.0035 0.0325 0.01613 0.0708 0.01809 0.0723 0.0037 0.11749 0.03532 0.12919 0.0677 0.0192 0.05245 0.0537 0.10935 0.0284 0.17622-0.0254 0.06698-0.0644 0.1402-0.13436 0.19017-0.10131 0.0723-0.21704 0.08335-0.28474 0.08165-0.10582-0.0026-0.23003-0.03975-0.3421-0.12144-0.15421-0.1124-0.22911-0.2666-0.25941-0.34675-0.0814-0.21504-0.0532-0.4169-0.0351-0.50333 0.0421-0.20089 0.14802-0.37984 0.27078-0.5085 0.15778-0.16534 0.36124-0.27664 0.56018-0.32814 0.28138-0.07285 0.52858-0.04475 0.7214 0.01137 0.28729 0.08362 0.51862 0.25192 0.67489 0.42065 0.20301 0.2192 0.33939 0.49681 0.39739 0.77256 0.0465 0.22101 0.0706 0.55873-0.0579 0.94051-0.10768 0.32004-0.31124 0.61774-0.56999 0.84078-0.2749 0.23695-0.62544 0.40293-0.98547 0.46664-0.27585 0.04881-0.69679 0.06602-1.1591-0.10439-0.38684-0.14258-0.74349-0.39833-1.0077-0.71985-0.28436-0.34605-0.46716-0.77481-0.53536-1.1979-0.0733-0.45479-0.0174-0.94711 0.15037-1.3782 0.17667-0.454 0.48332-0.87207 0.86972-1.1736 0.46354-0.3617 0.84575-0.85006 1.0687-1.3947 0.20523-0.50158 0.29392-1.0958 0.21342-1.6702-0.071-0.50674-0.27494-1.0136-0.58963-1.432zm-5.2756 4.7635c0.31824-0.01086 0.6677 0.03891 0.99942 0.16588 0.43101 0.16497 0.82552 0.45552 1.1178 0.81959 0.30785 0.3835 0.51438 0.85774 0.58188 1.3395 0.0806 0.57486 0.30928 1.1527 0.67386 1.6237 0.34497 0.44568 0.81796 0.808 1.3394 1.0191 0.50423 0.2041 1.068 0.27291 1.5968 0.19689-0.35199 0.25407-0.73818 0.47076-1.1596 0.65009-0.70742 0.30104-1.46 0.45165-2.2577 0.45165-0.79775 0-1.5515-0.14788-2.2577-0.45165-0.53807-0.23142-1.0298-0.52484-1.4656-0.88728 0.25702 0.03944 0.52414 0.04099 0.78393-0.0021 0.40537-0.06718 0.80669-0.24554 1.1271-0.51263 0.29649-0.24717 0.53685-0.58186 0.66972-0.95188 0.0696-0.19371 0.18007-0.60567 0.0884-1.0862-0.065-0.34097-0.22295-0.66443-0.44338-0.91467-0.19604-0.22255-0.47002-0.41796-0.78549-0.51986-0.17489-0.0565-0.49849-0.12662-0.86764-0.04237-0.14663 0.03346-0.44408 0.12701-0.70177 0.37414-0.15684 0.15042-0.30262 0.36372-0.37052 0.6196-0.0308 0.11585-0.0794 0.36502 4e-3 0.64854 0.032 0.10867 0.11488 0.319 0.3054 0.48886 0.1642 0.1464 0.33847 0.20244 0.45321 0.22118 0.0623 0.01018 0.24173 0.03324 0.42994-0.05064 0.10919-0.04866 0.20986-0.12858 0.27596-0.23616 0.0158-0.02572 0.0851-0.15036 0.0708-0.28732-0.011-0.10509-0.0594-0.176-0.0971-0.21136-0.0597-0.0559-0.12293-0.06741-0.16743-0.06511-0.0195 1e-3 -0.0881 0.01289-0.12041 0.07855-0.0262 0.05316-0.0884 0.07695-0.12092 0.07855-0.0363 0.0018-0.10522-0.0078-0.16692-0.06563-0.0446-0.04188-0.0858-0.11661-0.0971-0.21136-8e-3 -0.0688 6e-3 -0.18228 0.0703-0.28732 0.0651-0.10584 0.166-0.18647 0.27647-0.23564 0.19016-0.08465 0.36765-0.06129 0.42995-0.05064 0.15896 0.02718 0.32153 0.10338 0.4532 0.22066 0.19129 0.17038 0.27401 0.38157 0.30541 0.48886 0.0807 0.27624 0.0371 0.52425 4e-3 0.64906-0.0605 0.22529-0.19015 0.44643-0.37052 0.6196-0.18487 0.17749-0.43209 0.31139-0.70125 0.37414-0.20243 0.04719-0.52914 0.06756-0.86765-0.04237-0.2974-0.09659-0.57553-0.28134-0.786-0.52038-0.22046-0.25039-0.37728-0.57323-0.44338-0.91416-0.0854-0.44062 2e-3 -0.8431 0.0889-1.0862 0.1338-0.37258 0.37515-0.70623 0.66973-0.95188 0.32405-0.27022 0.72712-0.44505 1.1271-0.51263 0.0974-0.01647 0.19985-0.02687 0.30593-0.03049z" stroke-linejoin="round" stroke-width=".26458"/>
  <path id="line" d="m46.25 62.429v1.5353h36.04v-1.5353zm40.349 0-1.2387 1.5353h12.598v-1.5353zm15.669 0-1.2387 1.5353h62.134v-1.5353z"/>
 </g>
</svg>
