<?xml version="1.0" encoding="UTF-8" standalone="no"?>
<!-- Created with Inkscape (http://www.inkscape.org/) -->

<svg
   width="216mm"
   height="16mm"
   viewBox="0 0 216 16"
   version="1.1"
   id="svg1"
   inkscape:version="1.4.4 (dcaf3e7, 2026-05-05)"
   sodipodi:docname="footers.svg"
   xml:space="preserve"
   xmlns:inkscape="http://www.inkscape.org/namespaces/inkscape"
   xmlns:sodipodi="http://sodipodi.sourceforge.net/DTD/sodipodi-0.dtd"
   xmlns="http://www.w3.org/2000/svg"
   xmlns:svg="http://www.w3.org/2000/svg"><sodipodi:namedview
     id="namedview1"
     pagecolor="#ffffff"
     bordercolor="#eeeeee"
     borderopacity="1"
     inkscape:showpageshadow="0"
     inkscape:pageopacity="0"
     inkscape:pagecheckerboard="0"
     inkscape:deskcolor="#505050"
     inkscape:document-units="mm"
     showgrid="true"
     inkscape:zoom="1.0179639"
     inkscape:cx="487.24712"
     inkscape:cy="6.8764715"
     inkscape:window-width="1920"
     inkscape:window-height="1010"
     inkscape:window-x="-6"
     inkscape:window-y="-6"
     inkscape:window-maximized="1"
     inkscape:current-layer="layer1"><inkscape:grid
       id="grid1"
       units="mm"
       originx="0"
       originy="0"
       spacingx="0.125"
       spacingy="0.125"
       empcolor="#0099e5"
       empopacity="0.30196078"
       color="#0099e5"
       opacity="0.14901961"
       empspacing="5"
       enabled="true"
       visible="true" /><inkscape:page
       x="0"
       y="0"
       width="216"
       height="16"
       id="page2"
       margin="0"
       bleed="0" /></sodipodi:namedview><defs
     id="defs1" /><g
     inkscape:label="Layer 1"
     inkscape:groupmode="layer"
     id="layer1"><path
       style="fill:#a70000;fill-opacity:1;stroke:none;stroke-width:0.3;stroke-linejoin:round;stroke-dasharray:none;stroke-opacity:1"
       d="m 201.24999,10.625 0.625,-0.625 0.625,0.625 -0.625,0.625 z"
       id="path15"
       sodipodi:nodetypes="ccccc" /><path
       style="fill:#a70000;fill-opacity:1;stroke:none;stroke-width:0.3;stroke-linejoin:round;stroke-dasharray:none;stroke-opacity:1"
       d="m 141,8.7500002 0.25,-0.25 0.25,0.25 -0.25,0.2500001 z"
       id="path15-76"
       sodipodi:nodetypes="ccccc" /><path
       style="fill:#a70000;fill-opacity:1;stroke:none;stroke-width:0.3;stroke-linejoin:round;stroke-dasharray:none;stroke-opacity:1"
       d="m 8.5,8.7500002 0.25,-0.25 0.25,0.25 -0.25,0.2500001 z"
       id="path15-76-2"
       sodipodi:nodetypes="ccccc" /><path
       style="fill:#a70000;fill-opacity:1;stroke:none;stroke-width:0.3;stroke-linejoin:round;stroke-dasharray:none;stroke-opacity:1"
       d="m 204.37499,13.75 0.625,-0.625 0.625,0.625 -0.625,0.625 z"
       id="path15-7"
       sodipodi:nodetypes="ccccc" /><path
       id="path16"
       style="fill:none;fill-opacity:1;stroke:#000000;stroke-width:0.3;stroke-linejoin:round;stroke-dasharray:none;stroke-opacity:0.298507"
       d="m 9.1249997,8.5000002 -0.3749995,-0.375 -1.2499999,1.2500001 -0.625,-0.6250001 -5e-7,-0.3125 m 0,-0.625 10e-8,-2.1875 H 5.9374998 m -0.625,0 H 3.4374999 m -0.625,0 h -0.9375 v 2.5 h 0.9375 m 0.625,0 h 0.9375 v -2.1875 m 0,-0.6250001 V 3.1250003 l -0.9375,-2e-7 m -0.625,0 -2.18749992,2e-7 V 0.25000001 L 1.8749999,1.5 v 1.3125001 m 0,0.625 v 0.9375003 l 2.1875,-3e-7 m 0.625,0 h 2.1875004 l 1.2499999,1.2500001 -4e-7,1.25 h -0.9375 m -0.625,0 H 4.6874999 m -0.625,0 h -1.875 m -0.6249999,0 H 0.62499998 l 4e-7,2.5000001 H 3.1250004 l -5e-7,-2.1875001 m 0,-0.625 V 4.6875001 m 0,-0.625 10e-8,-2.1874997 1.2500003,-3e-7 1.25,1.25 -5e-7,0.9375 m 0,0.625 v 1.8750001 m 0,0.625 v 0.9375 h 1.8750005 l 0.3749995,0.375 m 0.5,0.5000001 0.3750004,0.375 L 10,8.1250002 l 0.375,0.375 m 205.87499,-1 -5.625,5.6249998 -0.375,-0.375 m -0.5,-0.5 -0.375,-0.375 -1,1 m -0.5,0.5 -1,1 1.25,1.25 1.25,-1.25 -0.375,-0.375 m -0.5,-0.5 -0.75,-0.75 m -0.5,-0.5 -1,-1 -1,1 m -0.5,0.5 L 203.75,13.750001 204.99999,15 l 1.25,-1.25 -1.625,-1.625 m -0.5,-0.5 -0.75,-0.75 m -0.5,-0.5 -1,-0.9999997 -2.5,2.4999997 -2.875,-2.8749997 m -0.5,-0.5000001 -0.375,-0.375 -1.25,1.2500001 H 143.75 l -0.375,-0.3750021 m -0.5,-0.499998 -0.375,-0.375 -1.25,1.2500001 -0.375,-0.375002 m -0.5,-0.4999981 -0.375,-0.375 -1.25,1.2500001 H 11.25 l -0.375,-0.375 m 205.37499,-0.2500001 -4.375,4.3749998 -0.375,-0.375 m -0.5,-0.5 -0.375,-0.375 -1,1 m -0.5,0.5 -1,1 0.375,0.375 m 0.5,0.5 0.375,0.375 1.25,-1.25 -1.625,-1.625 m -0.5,-0.5 -0.375,-0.375 -1.25,1.25 -1,-1 m -0.5,-0.5 -0.375,-0.375 -1.25,1.25 -0.375,-0.375 m -0.5,-0.5 -0.375,-0.375 1.25,-1.25 0.625,0.625 -0.375,0.375 m -0.5,0.5 -1,1 -1.625,-1.625 m -0.5,-0.5 -1,-1.0000001 0.625,-0.6249997 0.625,0.6249997 -0.375,0.3750004 m -0.5,0.4999997 -0.375,0.375 -2.5,-2.4999998 -1.25,1.2500001 -0.375,-0.375 m -0.5,-0.5000001 -0.375,-0.375 H 143.75 l -1.25,1.2500001 -0.375,-0.375002 m -0.5,-0.4999981 -0.375,-0.375 -1.25,1.2500001 -0.375,-0.375 m -0.5,-0.5000001 -0.375,-0.375 H 11.25 L 10,9.3750003 l -0.3750003,-0.375"
       sodipodi:nodetypes="ccccccccccccccccccccccccccccccccccccccccccccccccccccccccccccccccccccccccccccccccccccccccccccccccccccccccccccccccccccccccccccccccccccccccccccccccccccccccc" /></g></svg>
