<?xml version="1.0" encoding="UTF-8" standalone="no"?>
<!-- Created with Inkscape (http://www.inkscape.org/) -->

<svg
   width="216mm"
   height="13.5mm"
   viewBox="0 0 216 13.5"
   version="1.1"
   id="svg1"
   xml:space="preserve"
   xmlns="http://www.w3.org/2000/svg"
   xmlns:svg="http://www.w3.org/2000/svg"><defs
     id="defs1" /><g
     id="layer1"><path
       style="fill:#a70000;fill-opacity:1;stroke:none;stroke-width:0.3;stroke-linejoin:round;stroke-dasharray:none;stroke-opacity:1"
       d="m 201.24999,8.1249988 0.625,-0.625 0.625,0.625 -0.625,0.625 z"
       id="path15" /><path
       style="fill:#a70000;fill-opacity:1;stroke:none;stroke-width:0.3;stroke-linejoin:round;stroke-dasharray:none;stroke-opacity:1"
       d="M 15,10.625 15.625,9.9999995 16.25,10.625 15.625,11.25 Z"
       id="path15-4" /><path
       style="fill:#a70000;fill-opacity:1;stroke:none;stroke-width:0.3;stroke-linejoin:round;stroke-dasharray:none;stroke-opacity:1"
       d="m 136,6.2499998 0.25,-0.25 0.25,0.25 -0.25,0.2500001 z"
       id="path15-76" /><path
       style="fill:#a70000;fill-opacity:1;stroke:none;stroke-width:0.3;stroke-linejoin:round;stroke-dasharray:none;stroke-opacity:1"
       d="m 8.4999996,11.875 0.25,-0.25 0.25,0.25 -0.25,0.25 z"
       id="path15-76-2" /><path
       style="fill:#a70000;fill-opacity:1;stroke:none;stroke-width:0.3;stroke-linejoin:round;stroke-dasharray:none;stroke-opacity:1"
       d="m 19.124999,6.2499998 0.25,-0.25 0.25,0.25 -0.25,0.25 z"
       id="path15-76-2-9" /><path
       style="fill:#a70000;fill-opacity:1;stroke:none;stroke-width:0.3;stroke-linejoin:round;stroke-dasharray:none;stroke-opacity:1"
       d="M 0.99999996,1.25 1.25,0.99999996 1.5,1.25 1.25,1.5 Z"
       id="path15-76-2-5" /><path
       style="fill:#a70000;fill-opacity:1;stroke:none;stroke-width:0.3;stroke-linejoin:round;stroke-dasharray:none;stroke-opacity:1"
       d="m 204.37499,11.25 0.625,-0.625 0.625,0.625 -0.625,0.625 z"
       id="path15-7" /><path
       id="path16"
       style="fill:none;fill-opacity:1;stroke:#000000;stroke-width:0.3;stroke-linejoin:round;stroke-dasharray:none;stroke-opacity:0.298507"
       d="M 9.1249993,11.625 8.7499998,11.25 7.4999999,12.5 l -0.625,-0.625 -5e-7,-0.3125 m 0,-0.625 1e-7,-2.1875012 H 5.9374994 m -0.625,0 H 3.4374995 m -0.625,0 h -0.9375 V 11.25 h 0.9375 m 0.625,0 h 0.9375 V 9.0624988 m 0,-0.625 V 6.2499992 l -0.9375,-2e-7 m -0.625,0 -2.18749992,2e-7 2e-7,-2.4999993 0.37500019,-0.375 M 1.5,2.8749999 1.8749999,2.4999999 0.62499998,1.25 1.25,0.62499998 1.8749999,1.2499999 1.5,1.625 m -0.50000003,0.4999999 -0.37499999,0.375 1.24999972,1.25 -2e-7,2.1874991 m 0,0.625 v 0.9375008 l 2.1875,-1e-6 m 0.625,0 h 2.1875004 l 1.2499999,1.25 -4e-7,1.2500008 h -0.9375 m -0.625,0 H 4.6874995 m -0.625,0 h -1.875 m -0.6249999,0 H 0.62499958 l 4e-7,2.5000004 H 3.125 l -5e-7,-2.1875 m 0,-0.6250004 V 7.8124988 m 0,-0.6249998 1e-7,-2.1874997 1.2500003,-3e-7 1.25,1.25 -5e-7,0.9375 m 0,0.6249998 v 1.8750008 m 0,0.6250004 V 11.25 h 1.8750005 l 0.3749995,0.375 m 0.5,0.5 L 8.7499998,12.5 9.9999996,11.25 10.375,11.625 m 205.87499,-6.625001 -5.625,5.625001 -0.375,-0.375 m -0.5,-0.5000004 -0.375,-0.3750008 -1,1.0000012 m -0.5,0.5 -1,1 1.25,1.25 1.25,-1.25 -0.375,-0.375 m -0.5,-0.5 -0.75,-0.75 m -0.5,-0.5000004 -1,-1.0000008 -1,1.0000008 m -0.5,0.5000004 -0.99999,1.000001 1.24999,1.249999 1.25,-1.25 -1.625,-1.6250008 m -0.5,-0.5000004 -0.75,-0.75 m -0.5,-0.5 -1,-0.9999997 -2.5,2.4999997 -2.875,-2.8749997 m -0.5,-0.5000001 -0.375,-0.375 -1.25,1.2500001 H 138.75 L 138.375,6.499997 m -0.5,-0.499998 -0.375,-0.375 -1.25,1.2500001 -0.375,-0.375002 m -0.5,-0.4999981 -0.375,-0.375 -1.25,1.2500001 -111.875001,7e-7 -1.25,-1.25 -1.25,1.25 -1.25,-1.25 -2.874999,2.875 M 14.75,9.0000001 11.25,12.5 10.875,12.125 m 205.37499,-5.875001 -4.375,4.375001 -0.375,-0.375 m -0.5,-0.5000004 -0.375,-0.3750008 -1,1.0000012 m -0.5,0.5 -1,1 0.375,0.375 m 0.5,0.5 0.375,0.375 1.25,-1.25 -1.625,-1.625 m -0.5,-0.5000004 -0.375,-0.3750008 -1.25,1.2500012 -1,-1.0000008 m -0.5,-0.5000004 -0.375,-0.375 -1.25,1.2500008 -0.375,-0.3750004 m -0.5,-0.5000004 -0.375,-0.375 1.25,-1.25 0.625,0.625 -0.375,0.375 m -0.5,0.5 -1,1.0000008 -1.625,-1.6250008 m -0.5,-0.5 -1,-1.0000001 0.625,-0.6249997 0.625,0.6249997 -0.375,0.3750004 m -0.5,0.4999997 -0.375,0.375 -2.5,-2.4999998 -1.25,1.2500001 -0.375,-0.375 m -0.5,-0.5000001 -0.375,-0.375 H 138.75 l -1.25,1.2500001 -0.375,-0.375002 m -0.5,-0.4999981 -0.375,-0.375 -1.25,1.2500001 -0.375,-0.375 m -0.5,-0.5000001 -0.375,-0.375 -111.875001,8e-7 -1.25,1.25 L 19.375,5.624999 l -5,5.000001 1.25,1.249999 1.25,-1.249999 -1,-0.9999999 m -0.5,-0.5 -1,-1.0000003 L 9.9999996,12.5 9.6249993,12.125" /></g></svg>
