<?xml version="1.0" encoding="UTF-8" standalone="no"?>
<!-- Created with Inkscape (http://www.inkscape.org/) -->

<svg
   width="216mm"
   height="32mm"
   viewBox="0 0 216 32"
   version="1.1"
   id="svg1"
   xml:space="preserve"
   xmlns="http://www.w3.org/2000/svg"
   xmlns:svg="http://www.w3.org/2000/svg"><defs
     id="defs1" /><path
     style="fill:#a70000;fill-opacity:1;stroke:none;stroke-width:0.3;stroke-linejoin:round;stroke-dasharray:none;stroke-opacity:1"
     d="m 82.774992,3.8999938 0.25,-0.25 0.25,0.25 -0.25,0.25 z"
     id="path15-76-2-9-5" /><path
     style="fill:#a70000;fill-opacity:1;stroke:none;stroke-width:0.3;stroke-linejoin:round;stroke-dasharray:none;stroke-opacity:1"
     d="m 132.77499,3.8999939 0.25,-0.25 0.25,0.25 -0.25,0.25 z"
     id="path15-76-2-9-1" /><path
     style="fill:none;fill-opacity:0.154122;stroke:#000000;stroke-width:0.3;stroke-linejoin:round;stroke-opacity:0.296919"
     d="m 135.77499,6.7749939 0.375,-0.3750002 1.25,1.2500001 0.625,-0.6250001 -0.625,-0.625 -0.375,0.3750002 m -0.5,0.5 -0.375,0.3749999 -3.75,-3.7499999 0.625,-0.6250001 0.625,0.6250001 -0.375,0.3750002 m -0.5,0.4999997 -0.375,0.375 2.5,2.5 0.375,-0.3749998"
     id="path1" /><path
     style="fill:none;fill-opacity:0.154122;stroke:#000000;stroke-width:0.3;stroke-linejoin:round;stroke-opacity:0.296919"
     d="m 79.024992,7.274994 -0.375,0.3749998 -0.625,-0.6250001 0.625,-0.625 1.25,1.2500001 0.375,-0.3749998 m 0.5,-0.5 2,-2.0000001 m 0.5,-0.5 0.375,-0.375 -0.625,-0.6250001 -0.625,0.6250001 1.25,1.2499999 -2.5,2.5 -1.25,-1.2500001 -0.375,0.3750003"
     id="path1-1" /><path
     style="fill:#a70000;fill-opacity:1;stroke:none;stroke-width:0.3;stroke-linejoin:round;stroke-dasharray:none;stroke-opacity:1"
     d="m 78.399992,7.0249939 0.25,-0.25 0.25,0.25 -0.25,0.25 z"
     id="path15-76-2-9-2" /><path
     style="fill:#a70000;fill-opacity:1;stroke:none;stroke-width:0.3;stroke-linejoin:round;stroke-dasharray:none;stroke-opacity:1"
     d="m 137.14999,7.0249939 0.25,-0.25 0.25,0.25 -0.25,0.25 z"
     id="path15-76-2-9-8" /></svg>
